<?xml version="1.0" standalone="no"?>
<!DOCTYPE svg PUBLIC "-//W3C//DTD SVG 20010904//EN"
 "http://www.w3.org/TR/2001/REC-SVG-20010904/DTD/svg10.dtd">
<svg version="1.0" xmlns="http://www.w3.org/2000/svg"
 width="212.000000pt" height="238.000000pt" viewBox="0 0 212.000000 238.000000"
 preserveAspectRatio="xMidYMid meet">

<g transform="translate(0.000000,238.000000) scale(0.100000,-0.100000)"
fill="#000000" stroke="none">
<path d="M960 2369 c-94 -15 -208 -79 -281 -157 -106 -113 -148 -228 -149
-404 l0 -88 -107 0 c-60 0 -125 -5 -146 -11 -43 -12 -101 -59 -123 -100 -9
-19 -37 -257 -84 -725 -58 -576 -68 -704 -59 -738 15 -54 81 -120 136 -135 30
-8 296 -11 935 -9 994 3 921 -2 986 72 57 65 57 54 -9 705 -32 328 -64 640
-69 693 -11 116 -25 153 -73 195 -49 43 -91 53 -219 53 l-108 0 0 78 c0 187
-47 311 -158 422 -129 129 -286 179 -472 149z m243 -148 c163 -63 257 -213
257 -412 l0 -89 -401 0 -401 0 4 108 c9 210 96 336 277 399 81 29 177 27 264
-6z m-673 -711 c0 -47 -4 -80 -10 -80 -21 0 -50 -65 -50 -112 0 -118 147 -169
223 -78 47 56 44 131 -8 180 -22 21 -25 32 -25 97 l0 73 400 0 400 0 0 -73 c0
-65 -3 -76 -25 -97 -57 -53 -54 -144 6 -194 40 -34 72 -41 119 -27 56 17 90
61 90 119 0 47 -29 112 -50 112 -6 0 -10 33 -10 80 l0 80 75 0 c151 0 180 -31
200 -222 8 -73 21 -191 29 -263 8 -71 20 -175 26 -230 6 -55 24 -218 41 -363
29 -257 29 -264 12 -300 -10 -19 -31 -45 -46 -56 -28 -21 -36 -21 -867 -21
-832 0 -839 0 -867 21 -43 32 -65 81 -59 134 9 68 54 472 66 580 5 52 17 156
25 230 9 74 22 195 30 268 20 191 47 221 198 222 l77 0 0 -80z"/>
</g>
</svg>
